<svg xmlns="http://www.w3.org/2000/svg" width="126.187" height="96.664" viewBox="0 0 126.187 96.664">
  <g id="그룹_20" data-name="그룹 20" transform="translate(-1089 -698.036)">
    <path id="빼기_2" data-name="빼기 2" d="M14.924,29A14.5,14.5,0,0,1,4.671,4.247a14.511,14.511,0,0,1,24.14,6.058A25.094,25.094,0,0,0,20.554,26.65c-.477.554-.933,1.129-1.355,1.709A14.484,14.484,0,0,1,14.924,29Z" transform="translate(1108.076 717.5)" fill="none" stroke="#222" stroke-width="5"/>
    <line id="선_76" data-name="선 76" y2="8.92" transform="translate(1122.982 700.536)" fill="none" stroke="#222" stroke-linecap="round" stroke-width="5"/>
    <line id="선_58" data-name="선 58" y2="8.92" transform="translate(1100.42 732.018) rotate(90)" fill="none" stroke="#222" stroke-linecap="round" stroke-width="5"/>
    <line id="선_57" data-name="선 57" y2="8.92" transform="translate(1145.243 709.757) rotate(45)" fill="none" stroke="#222" stroke-linecap="round" stroke-width="5"/>
    <line id="선_58-2" data-name="선 58" y2="8.92" transform="translate(1107.028 747.972) rotate(45)" fill="none" stroke="#222" stroke-linecap="round" stroke-width="5"/>
    <line id="선_57-2" data-name="선 57" y2="8.92" transform="translate(1100.721 709.757) rotate(-45)" fill="none" stroke="#222" stroke-linecap="round" stroke-width="5"/>
    <path id="패스_12" data-name="패스 12" d="M1236.3,546.2h70.2c24.8-5.2,24.45-49.55-12.55-40.55-3.65-52.35-64.05-29.45-53.05,3.15C1212.75,508.65,1212.5,540.6,1236.3,546.2Z" transform="translate(-111 246)" fill="none" stroke="#222" stroke-width="5"/>
  </g>
</svg>
