<svg xmlns="http://www.w3.org/2000/svg" width="291.213" height="291" viewBox="0 0 291.213 291">
  <g id="그룹_32" data-name="그룹 32" transform="translate(-1047.787 -1106)">
    <circle id="타원_12" data-name="타원 12" cx="145.5" cy="145.5" r="145.5" transform="translate(1048 1106)" fill="#fff"/>
    <path id="패스_31" data-name="패스 31" d="M0,45" transform="translate(1047.787 1274.86)" fill="none" stroke="#707070" stroke-linecap="round" stroke-width="3"/>
    <g id="그룹_31" data-name="그룹 31" transform="translate(-659 400.234)">
      <circle id="타원_16" data-name="타원 16" cx="44.5" cy="44.5" r="44.5" transform="translate(1891 857.766)" fill="#52a750"/>
      <ellipse id="타원_15" data-name="타원 15" cx="62" cy="61.5" rx="62" ry="61.5" transform="translate(1806 778.766)" fill="#52a750"/>
      <circle id="타원_14" data-name="타원 14" cx="61.5" cy="61.5" r="61.5" transform="translate(1714 778.766)" fill="#52a750"/>
      <g id="패스_34" data-name="패스 34" transform="translate(1821.72 795.958)" fill="none">
        <path d="M45.4,0c25.072,0,45.4,19.98,45.4,44.627S70.468,89.254,45.4,89.254,0,69.274,0,44.627,20.325,0,45.4,0Z" stroke="none"/>
        <path d="M 45.3963737487793 17 C 29.73855209350586 17 16.99999237060547 29.39338302612305 16.99999237060547 44.6269416809082 C 16.99999237060547 59.86050033569336 29.73855209350586 72.25388336181641 45.3963737487793 72.25388336181641 C 61.05419921875 72.25388336181641 73.79275512695313 59.86050033569336 73.79275512695313 44.6269416809082 C 73.79275512695313 29.39338302612305 61.05419921875 17 45.3963737487793 17 M 45.3963737487793 0 C 70.46807861328125 0 90.79275512695313 19.98017883300781 90.79275512695313 44.6269416809082 C 90.79275512695313 69.27370452880859 70.46807861328125 89.25388336181641 45.3963737487793 89.25388336181641 C 20.32463836669922 89.25388336181641 -7.62939453125e-06 69.27370452880859 -7.62939453125e-06 44.6269416809082 C -7.62939453125e-06 19.98017883300781 20.32463836669922 0 45.3963737487793 0 Z" stroke="none" fill="#fff"/>
      </g>
      <path id="패스_32" data-name="패스 32" d="M1798.421,811.043c-10.992-18.906-30.627-19.077-44.407-14.07-15.645,5.679-24.759,21.29-24.512,35.137.256,14.363,7.578,31.635,25.831,36.31,10.689,2.742,34.514,3.957,43.088-13.63" transform="translate(8.351 8.218)" fill="none" stroke="#fff" stroke-linecap="round" stroke-width="17"/>
      <path id="패스_33" data-name="패스 33" d="M1854,856.128c2.126-18.707,32.1-21.045,32.737,3.4-1.063,7.865-7.44,11.054-9.141,12.542s-23.6,19.557-23.6,19.557" transform="translate(64.669 33.513)" fill="none" stroke="#fff" stroke-linecap="round" stroke-width="13"/>
      <line id="선_96" data-name="선 96" x1="34.437" transform="translate(1919.306 925.991)" fill="none" stroke="#fff" stroke-linecap="round" stroke-width="13"/>
    </g>
  </g>
</svg>
