<svg xmlns="http://www.w3.org/2000/svg" width="24.042" height="24.042" viewBox="0 0 24.042 24.042">
  <g id="사각형_38" data-name="사각형 38" transform="translate(24.042 12.021) rotate(135)" fill="none" stroke="#222" stroke-width="2">
    <path d="M9,0H9a8,8,0,0,1,8,8V8a9,9,0,0,1-9,9H0a0,0,0,0,1,0,0V9A9,9,0,0,1,9,0Z" stroke="none"/>
    <path d="M8.952,1h0A7.048,7.048,0,0,1,16,8.048v0A7.952,7.952,0,0,1,8.048,16H1.181A.181.181,0,0,1,1,15.819V8.952A7.952,7.952,0,0,1,8.952,1Z" fill="none"/>
  </g>
</svg>
